<svg xmlns="http://www.w3.org/2000/svg" width="48" height="48" viewBox="0 0 36 36"><path d="m7.9 3.1h23.8v19.3h-23.8z" fill="#fff"/><path d="m8.3 8.1h4.6v4.6h-4.6z"/><path d="m8.3 17.3h4.6v4.6h-4.6z"/><path d="m12.9 3.5h4.6v4.6h-4.6z"/><path d="m12.9 12.7h4.6v4.6h-4.6z"/><path d="m17.5 8.1h4.6v4.6h-4.6z"/><path d="m17.5 17.3h4.6v4.6h-4.6z"/><path d="m22.1 3.5h4.6v4.6h-4.6z"/><path d="m22.1 12.7h4.6v4.6h-4.6z"/><path d="m26.7 8.1h4.6v4.6h-4.6z"/><path d="m26.7 17.3h4.6v4.6h-4.6z"/><g stroke="#2e2e2e"><path d="m7.9 3.1h23.8v19.3h-23.8z" fill="none"/><path d="m4 1.3h3.9v33h-3.9z" fill="#cccccb"/></g></svg>